<svg width="51" height="49" viewBox="0 0 51 49" stroke="white" xmlns="http://www.w3.org/2000/svg">
<mask id="path-1-outside-1_252_83" maskUnits="userSpaceOnUse" x="0" y="0" width="51" height="49" fill="white">
<rect width="51" height="49"/>
<path d="M49.998 28.3943C50.0007 28.3825 50.0007 28.3703 49.998 28.3585C49.996 28.3427 49.996 28.3267 49.998 28.3109L48.8701 18.0909L48.4358 14.0387C48.3812 13.384 48.2413 12.7391 48.0196 12.1198C47.5473 10.9328 46.792 9.87591 45.8179 9.03892C45.0178 8.35249 44.1602 7.73448 43.2543 7.19157L42.8019 6.90552C40.8839 5.67278 38.8872 4.56405 36.8241 3.58628L36.5105 3.44325C35.63 3.00005 34.7212 2.61388 33.79 2.28717C31.7361 1.61158 29.604 1.19512 27.4444 1.04767L26.7748 1H26.4551H24.5369H24.4284H24.2233C22.9226 1.04515 21.6277 1.19261 20.3507 1.44097C18.3911 1.81575 16.4891 2.44074 14.6927 3.30023C12.267 4.44561 9.92136 5.74959 7.67141 7.20348L7.41807 7.3763C6.81487 7.75173 6.21167 8.14504 5.68085 8.56814C4.89571 9.17312 4.21702 9.90199 3.67218 10.7254C3.09445 11.5803 2.73058 12.5587 2.61054 13.5798C2.46175 14.9226 2.31498 16.2634 2.17021 17.6022C2.08576 18.4365 1.99528 19.2649 1.9048 20.0991C1.66352 22.3358 1.42022 24.5705 1.17492 26.8032C1.13872 27.1369 1.09653 27.4706 1.0543 27.8043L1 28.2692V29.3001L1.04223 29.5087C1.04223 29.6338 1.08444 29.753 1.10857 29.8781C1.15446 30.1532 1.21485 30.4257 1.28952 30.6946C1.53837 31.5099 1.93261 32.2747 2.4537 32.9531C2.50366 33.0161 2.53873 33.0894 2.55627 33.1676C2.68294 33.7218 2.80358 34.2701 2.93025 34.8243L3.11121 35.6585C3.22413 36.274 3.4104 36.8741 3.66614 37.4463C4.20162 38.5837 4.99652 39.5832 5.98849 40.3663C6.80281 40.998 7.66536 41.5581 8.48571 42.1064C10.3903 43.3403 12.3774 44.4453 14.4333 45.4137C15.2959 45.8189 16.08 46.1884 16.9004 46.5042C18.4561 47.0869 20.0757 47.4869 21.726 47.6961C22.4619 47.7974 23.1978 47.8927 23.7588 47.9583L24.2353 48H24.4464H26.5818H26.624H26.6662H26.7627C28.1146 47.9534 29.4583 47.7737 30.774 47.4637C30.961 47.416 31.154 47.3683 31.341 47.3326C31.528 47.2968 31.8296 47.2253 32.0709 47.1538L32.7284 46.9631C33.4071 46.7852 34.0723 46.5602 34.719 46.2897C37.9102 44.9062 40.9568 43.2177 43.8152 41.2482C44.7219 40.6614 45.5351 39.9444 46.228 39.1208C46.909 38.3199 47.4015 37.3795 47.6697 36.3677C47.7722 35.9327 47.8687 35.4857 47.9592 35.0567C48.0497 34.6276 48.1221 34.3296 48.2066 33.9661C48.2066 33.9065 48.2066 33.841 48.2488 33.7814C48.3024 33.3943 48.4425 33.0238 48.659 32.6968C49.1959 31.9898 49.5724 31.1768 49.7628 30.3132C49.8171 30.0629 49.8593 29.8066 49.9015 29.5563L49.9558 29.2167V28.3645L49.998 28.3943ZM6.38055 40.2471C5.70088 39.7229 5.1033 39.1024 4.60713 38.4057C3.98454 37.4944 3.57266 36.4588 3.40073 35.3725C3.31628 34.9256 3.20772 34.4727 3.11121 34.0317L3.03882 33.7278C3.81554 34.5412 4.6884 35.2595 5.63862 35.8671C7.48243 37.1302 9.40659 38.2747 11.3992 39.2936C12.8167 40.0147 14.0774 40.6106 15.2537 41.1112C16.768 41.7189 18.346 42.1586 19.9586 42.4222C22.173 42.8154 24.4242 42.9693 26.6723 42.8811C28.7435 42.8121 30.8016 42.5285 32.8128 42.0349C34.414 41.6366 35.9672 41.0692 37.4454 40.3425C39.4974 39.3723 41.493 38.29 43.4232 37.1007C44.5451 36.4034 45.6007 35.6943 46.5598 34.9852C46.9426 34.6872 47.2997 34.3583 47.6275 34.0019C47.724 33.8946 47.8265 33.7933 47.9291 33.692C47.9291 33.8052 47.8748 33.9244 47.8506 34.0376C47.7119 34.6336 47.5671 35.301 47.4344 35.9327C47.3198 36.4986 47.1312 37.0475 46.8735 37.5655C46.4338 38.4182 45.834 39.1806 45.1061 39.8121C44.2788 40.5089 43.3974 41.1405 42.4701 41.7011L41.9875 42.0051C39.7385 43.4393 37.3811 44.7004 34.9361 45.7772C33.4071 46.4383 31.8001 46.9068 30.1527 47.1717C28.0751 47.5352 25.9614 47.6552 23.8553 47.5292C22.1748 47.4325 20.508 47.1731 18.8789 46.7545C17.3115 46.3174 15.7951 45.7181 14.3549 44.9668C12.262 43.9725 10.2405 42.8376 8.30476 41.57L7.78602 41.2304C7.32155 40.9026 6.83295 40.5868 6.38055 40.2471ZM46.403 34.6574C45.8782 35.0686 45.3112 35.4381 44.7623 35.8016L44.1591 36.177C42.5201 37.277 40.8116 38.2722 39.0439 39.1566C38.0547 39.6512 36.7457 40.2948 35.3885 40.8609C34.0263 41.4005 32.6113 41.7999 31.1661 42.0527C28.7203 42.5131 26.2265 42.6752 23.7407 42.5354C21.0977 42.4083 18.4861 41.9128 15.9835 41.0635C15.0963 40.7367 14.23 40.3566 13.3897 39.9253L12.7865 39.6214C11.0159 38.7777 9.29778 37.8305 7.64125 36.7848C6.71836 36.1889 5.64466 35.5155 4.62525 34.7528C3.21648 33.7409 2.1622 32.3202 1.60924 30.6886C1.3431 29.8431 1.26288 28.9511 1.37398 28.0725C1.50669 26.8807 1.63337 25.6889 1.76004 24.497C1.83846 23.8117 1.91084 23.1205 1.98322 22.4351C2.0918 21.4221 2.2064 20.415 2.31497 19.4019L2.91818 14.1996C2.94834 14.3009 3.00868 16.8156 5.76531 19.1695C6.17548 19.5211 8.37114 21.3625 15.7543 24.9976C16.7682 25.4646 17.8356 25.8088 18.9332 26.0226C19.9405 26.2371 20.9961 26.4278 22.0698 26.6185C22.6979 26.7017 23.3303 26.7494 23.9639 26.7615C24.8325 26.7913 25.5684 26.8092 26.3103 26.7913C27.0523 26.7734 27.945 26.7019 28.6266 26.6364C30.0824 26.4875 31.5217 26.2103 32.9274 25.808C34.0754 25.4928 35.1887 25.0656 36.2511 24.5328C43.1698 21.0586 45.0699 19.3066 45.7274 18.7166C48.0558 16.6369 47.9291 14.6227 47.9894 14.3903C48.0256 14.7657 48.2669 16.3747 48.3091 16.7739L48.5624 19.098C48.665 20.0098 48.7675 20.9215 48.864 21.8333C48.9847 22.9099 49.1013 23.9885 49.2139 25.0691L49.3225 26.0464C49.4129 26.8628 49.5034 27.709 49.5758 28.5433C49.6612 29.7175 49.3948 30.8906 48.8098 31.9162C48.2056 32.9829 47.3865 33.9158 46.403 34.6574ZM47.2716 12.1913C47.4998 12.8521 47.5906 13.5515 47.5388 14.2478C47.487 14.9441 47.2935 15.6229 46.97 16.2436C46.3668 17.4831 45.4137 18.812 40.4252 21.7498C38.5877 22.8454 36.6796 23.8208 34.7129 24.6698C33.811 25.0295 32.8861 25.33 31.9442 25.5697C30.7325 25.8981 29.4927 26.1155 28.2406 26.2192C27.6072 26.2728 26.9618 26.3026 26.3345 26.3324L25.484 26.3801C24.0699 26.3615 22.6589 26.244 21.2616 26.0285C19.5882 25.7958 17.9521 25.3511 16.3937 24.7056C15.1873 24.1812 13.9809 23.5614 12.8107 22.9655L12.5031 22.8046C10.6872 21.8583 8.93249 20.8015 7.24916 19.6403C6.5018 19.1517 5.81542 18.5776 5.2043 17.93C4.25161 16.9395 3.65042 15.6701 3.49123 14.3128C3.4032 13.3461 3.58908 12.3743 4.02808 11.506C4.66072 10.2344 5.62729 9.15397 6.82691 8.37744L7.3155 8.05566C8.3711 7.35248 9.46291 6.6314 10.5668 5.9759C12.4036 4.87367 14.3141 3.89609 16.2851 3.04994C17.1829 2.69014 18.1037 2.38955 19.0417 2.15012C20.7456 1.70868 22.4932 1.4529 24.2534 1.38734C24.6817 1.38734 25.116 1.35754 25.5503 1.35754C26.8462 1.35669 28.1404 1.44832 29.4228 1.63167C31.2435 1.84981 33.0243 2.3192 34.7129 3.02612C36.034 3.62203 37.3429 4.29541 38.6156 4.95092L39.0861 5.19524C41.0259 6.20908 42.8815 7.37275 44.6356 8.6754C45.8645 9.54651 46.7863 10.7761 47.2716 12.1913Z"/>
</mask>
<path d="M49.998 28.3943C50.0007 28.3825 50.0007 28.3703 49.998 28.3585C49.996 28.3427 49.996 28.3267 49.998 28.3109L48.8701 18.0909L48.4358 14.0387C48.3812 13.384 48.2413 12.7391 48.0196 12.1198C47.5473 10.9328 46.792 9.87591 45.8179 9.03892C45.0178 8.35249 44.1602 7.73448 43.2543 7.19157L42.8019 6.90552C40.8839 5.67278 38.8872 4.56405 36.8241 3.58628L36.5105 3.44325C35.63 3.00005 34.7212 2.61388 33.79 2.28717C31.7361 1.61158 29.604 1.19512 27.4444 1.04767L26.7748 1H26.4551H24.5369H24.4284H24.2233C22.9226 1.04515 21.6277 1.19261 20.3507 1.44097C18.3911 1.81575 16.4891 2.44074 14.6927 3.30023C12.267 4.44561 9.92136 5.74959 7.67141 7.20348L7.41807 7.3763C6.81487 7.75173 6.21167 8.14504 5.68085 8.56814C4.89571 9.17312 4.21702 9.90199 3.67218 10.7254C3.09445 11.5803 2.73058 12.5587 2.61054 13.5798C2.46175 14.9226 2.31498 16.2634 2.17021 17.6022C2.08576 18.4365 1.99528 19.2649 1.9048 20.0991C1.66352 22.3358 1.42022 24.5705 1.17492 26.8032C1.13872 27.1369 1.09653 27.4706 1.0543 27.8043L1 28.2692V29.3001L1.04223 29.5087C1.04223 29.6338 1.08444 29.753 1.10857 29.8781C1.15446 30.1532 1.21485 30.4257 1.28952 30.6946C1.53837 31.5099 1.93261 32.2747 2.4537 32.9531C2.50366 33.0161 2.53873 33.0894 2.55627 33.1676C2.68294 33.7218 2.80358 34.2701 2.93025 34.8243L3.11121 35.6585C3.22413 36.274 3.4104 36.8741 3.66614 37.4463C4.20162 38.5837 4.99652 39.5832 5.98849 40.3663C6.80281 40.998 7.66536 41.5581 8.48571 42.1064C10.3903 43.3403 12.3774 44.4453 14.4333 45.4137C15.2959 45.8189 16.08 46.1884 16.9004 46.5042C18.4561 47.0869 20.0757 47.4869 21.726 47.6961C22.4619 47.7974 23.1978 47.8927 23.7588 47.9583L24.2353 48H24.4464H26.5818H26.624H26.6662H26.7627C28.1146 47.9534 29.4583 47.7737 30.774 47.4637C30.961 47.416 31.154 47.3683 31.341 47.3326C31.528 47.2968 31.8296 47.2253 32.0709 47.1538L32.7284 46.9631C33.4071 46.7852 34.0723 46.5602 34.719 46.2897C37.9102 44.9062 40.9568 43.2177 43.8152 41.2482C44.7219 40.6614 45.5351 39.9444 46.228 39.1208C46.909 38.3199 47.4015 37.3795 47.6697 36.3677C47.7722 35.9327 47.8687 35.4857 47.9592 35.0567C48.0497 34.6276 48.1221 34.3296 48.2066 33.9661C48.2066 33.9065 48.2066 33.841 48.2488 33.7814C48.3024 33.3943 48.4425 33.0238 48.659 32.6968C49.1959 31.9898 49.5724 31.1768 49.7628 30.3132C49.8171 30.0629 49.8593 29.8066 49.9015 29.5563L49.9558 29.2167V28.3645L49.998 28.3943ZM6.38055 40.2471C5.70088 39.7229 5.1033 39.1024 4.60713 38.4057C3.98454 37.4944 3.57266 36.4588 3.40073 35.3725C3.31628 34.9256 3.20772 34.4727 3.11121 34.0317L3.03882 33.7278C3.81554 34.5412 4.6884 35.2595 5.63862 35.8671C7.48243 37.1302 9.40659 38.2747 11.3992 39.2936C12.8167 40.0147 14.0774 40.6106 15.2537 41.1112C16.768 41.7189 18.346 42.1586 19.9586 42.4222C22.173 42.8154 24.4242 42.9693 26.6723 42.8811C28.7435 42.8121 30.8016 42.5285 32.8128 42.0349C34.414 41.6366 35.9672 41.0692 37.4454 40.3425C39.4974 39.3723 41.493 38.29 43.4232 37.1007C44.5451 36.4034 45.6007 35.6943 46.5598 34.9852C46.9426 34.6872 47.2997 34.3583 47.6275 34.0019C47.724 33.8946 47.8265 33.7933 47.9291 33.692C47.9291 33.8052 47.8748 33.9244 47.8506 34.0376C47.7119 34.6336 47.5671 35.301 47.4344 35.9327C47.3198 36.4986 47.1312 37.0475 46.8735 37.5655C46.4338 38.4182 45.834 39.1806 45.1061 39.8121C44.2788 40.5089 43.3974 41.1405 42.4701 41.7011L41.9875 42.0051C39.7385 43.4393 37.3811 44.7004 34.9361 45.7772C33.4071 46.4383 31.8001 46.9068 30.1527 47.1717C28.0751 47.5352 25.9614 47.6552 23.8553 47.5292C22.1748 47.4325 20.508 47.1731 18.8789 46.7545C17.3115 46.3174 15.7951 45.7181 14.3549 44.9668C12.262 43.9725 10.2405 42.8376 8.30476 41.57L7.78602 41.2304C7.32155 40.9026 6.83295 40.5868 6.38055 40.2471ZM46.403 34.6574C45.8782 35.0686 45.3112 35.4381 44.7623 35.8016L44.1591 36.177C42.5201 37.277 40.8116 38.2722 39.0439 39.1566C38.0547 39.6512 36.7457 40.2948 35.3885 40.8609C34.0263 41.4005 32.6113 41.7999 31.1661 42.0527C28.7203 42.5131 26.2265 42.6752 23.7407 42.5354C21.0977 42.4083 18.4861 41.9128 15.9835 41.0635C15.0963 40.7367 14.23 40.3566 13.3897 39.9253L12.7865 39.6214C11.0159 38.7777 9.29778 37.8305 7.64125 36.7848C6.71836 36.1889 5.64466 35.5155 4.62525 34.7528C3.21648 33.7409 2.1622 32.3202 1.60924 30.6886C1.3431 29.8431 1.26288 28.9511 1.37398 28.0725C1.50669 26.8807 1.63337 25.6889 1.76004 24.497C1.83846 23.8117 1.91084 23.1205 1.98322 22.4351C2.0918 21.4221 2.2064 20.415 2.31497 19.4019L2.91818 14.1996C2.94834 14.3009 3.00868 16.8156 5.76531 19.1695C6.17548 19.5211 8.37114 21.3625 15.7543 24.9976C16.7682 25.4646 17.8356 25.8088 18.9332 26.0226C19.9405 26.2371 20.9961 26.4278 22.0698 26.6185C22.6979 26.7017 23.3303 26.7494 23.9639 26.7615C24.8325 26.7913 25.5684 26.8092 26.3103 26.7913C27.0523 26.7734 27.945 26.7019 28.6266 26.6364C30.0824 26.4875 31.5217 26.2103 32.9274 25.808C34.0754 25.4928 35.1887 25.0656 36.2511 24.5328C43.1698 21.0586 45.0699 19.3066 45.7274 18.7166C48.0558 16.6369 47.9291 14.6227 47.9894 14.3903C48.0256 14.7657 48.2669 16.3747 48.3091 16.7739L48.5624 19.098C48.665 20.0098 48.7675 20.9215 48.864 21.8333C48.9847 22.9099 49.1013 23.9885 49.2139 25.0691L49.3225 26.0464C49.4129 26.8628 49.5034 27.709 49.5758 28.5433C49.6612 29.7175 49.3948 30.8906 48.8098 31.9162C48.2056 32.9829 47.3865 33.9158 46.403 34.6574ZM47.2716 12.1913C47.4998 12.8521 47.5906 13.5515 47.5388 14.2478C47.487 14.9441 47.2935 15.6229 46.97 16.2436C46.3668 17.4831 45.4137 18.812 40.4252 21.7498C38.5877 22.8454 36.6796 23.8208 34.7129 24.6698C33.811 25.0295 32.8861 25.33 31.9442 25.5697C30.7325 25.8981 29.4927 26.1155 28.2406 26.2192C27.6072 26.2728 26.9618 26.3026 26.3345 26.3324L25.484 26.3801C24.0699 26.3615 22.6589 26.244 21.2616 26.0285C19.5882 25.7958 17.9521 25.3511 16.3937 24.7056C15.1873 24.1812 13.9809 23.5614 12.8107 22.9655L12.5031 22.8046C10.6872 21.8583 8.93249 20.8015 7.24916 19.6403C6.5018 19.1517 5.81542 18.5776 5.2043 17.93C4.25161 16.9395 3.65042 15.6701 3.49123 14.3128C3.4032 13.3461 3.58908 12.3743 4.02808 11.506C4.66072 10.2344 5.62729 9.15397 6.82691 8.37744L7.3155 8.05566C8.3711 7.35248 9.46291 6.6314 10.5668 5.9759C12.4036 4.87367 14.3141 3.89609 16.2851 3.04994C17.1829 2.69014 18.1037 2.38955 19.0417 2.15012C20.7456 1.70868 22.4932 1.4529 24.2534 1.38734C24.6817 1.38734 25.116 1.35754 25.5503 1.35754C26.8462 1.35669 28.1404 1.44832 29.4228 1.63167C31.2435 1.84981 33.0243 2.3192 34.7129 3.02612C36.034 3.62203 37.3429 4.29541 38.6156 4.95092L39.0861 5.19524C41.0259 6.20908 42.8815 7.37275 44.6356 8.6754C45.8645 9.54651 46.7863 10.7761 47.2716 12.1913Z" fill="white"/>
<path d="M49.998 28.3943C50.0007 28.3825 50.0007 28.3703 49.998 28.3585C49.996 28.3427 49.996 28.3267 49.998 28.3109L48.8701 18.0909L48.4358 14.0387C48.3812 13.384 48.2413 12.7391 48.0196 12.1198C47.5473 10.9328 46.792 9.87591 45.8179 9.03892C45.0178 8.35249 44.1602 7.73448 43.2543 7.19157L42.8019 6.90552C40.8839 5.67278 38.8872 4.56405 36.8241 3.58628L36.5105 3.44325C35.63 3.00005 34.7212 2.61388 33.79 2.28717C31.7361 1.61158 29.604 1.19512 27.4444 1.04767L26.7748 1H26.4551H24.5369H24.4284H24.2233C22.9226 1.04515 21.6277 1.19261 20.3507 1.44097C18.3911 1.81575 16.4891 2.44074 14.6927 3.30023C12.267 4.44561 9.92136 5.74959 7.67141 7.20348L7.41807 7.3763C6.81487 7.75173 6.21167 8.14504 5.68085 8.56814C4.89571 9.17312 4.21702 9.90199 3.67218 10.7254C3.09445 11.5803 2.73058 12.5587 2.61054 13.5798C2.46175 14.9226 2.31498 16.2634 2.17021 17.6022C2.08576 18.4365 1.99528 19.2649 1.9048 20.0991C1.66352 22.3358 1.42022 24.5705 1.17492 26.8032C1.13872 27.1369 1.09653 27.4706 1.0543 27.8043L1 28.2692V29.3001L1.04223 29.5087C1.04223 29.6338 1.08444 29.753 1.10857 29.8781C1.15446 30.1532 1.21485 30.4257 1.28952 30.6946C1.53837 31.5099 1.93261 32.2747 2.4537 32.9531C2.50366 33.0161 2.53873 33.0894 2.55627 33.1676C2.68294 33.7218 2.80358 34.2701 2.93025 34.8243L3.11121 35.6585C3.22413 36.274 3.4104 36.8741 3.66614 37.4463C4.20162 38.5837 4.99652 39.5832 5.98849 40.3663C6.80281 40.998 7.66536 41.5581 8.48571 42.1064C10.3903 43.3403 12.3774 44.4453 14.4333 45.4137C15.2959 45.8189 16.08 46.1884 16.9004 46.5042C18.4561 47.0869 20.0757 47.4869 21.726 47.6961C22.4619 47.7974 23.1978 47.8927 23.7588 47.9583L24.2353 48H24.4464H26.5818H26.624H26.6662H26.7627C28.1146 47.9534 29.4583 47.7737 30.774 47.4637C30.961 47.416 31.154 47.3683 31.341 47.3326C31.528 47.2968 31.8296 47.2253 32.0709 47.1538L32.7284 46.9631C33.4071 46.7852 34.0723 46.5602 34.719 46.2897C37.9102 44.9062 40.9568 43.2177 43.8152 41.2482C44.7219 40.6614 45.5351 39.9444 46.228 39.1208C46.909 38.3199 47.4015 37.3795 47.6697 36.3677C47.7722 35.9327 47.8687 35.4857 47.9592 35.0567C48.0497 34.6276 48.1221 34.3296 48.2066 33.9661C48.2066 33.9065 48.2066 33.841 48.2488 33.7814C48.3024 33.3943 48.4425 33.0238 48.659 32.6968C49.1959 31.9898 49.5724 31.1768 49.7628 30.3132C49.8171 30.0629 49.8593 29.8066 49.9015 29.5563L49.9558 29.2167V28.3645L49.998 28.3943ZM6.38055 40.2471C5.70088 39.7229 5.1033 39.1024 4.60713 38.4057C3.98454 37.4944 3.57266 36.4588 3.40073 35.3725C3.31628 34.9256 3.20772 34.4727 3.11121 34.0317L3.03882 33.7278C3.81554 34.5412 4.6884 35.2595 5.63862 35.8671C7.48243 37.1302 9.40659 38.2747 11.3992 39.2936C12.8167 40.0147 14.0774 40.6106 15.2537 41.1112C16.768 41.7189 18.346 42.1586 19.9586 42.4222C22.173 42.8154 24.4242 42.9693 26.6723 42.8811C28.7435 42.8121 30.8016 42.5285 32.8128 42.0349C34.414 41.6366 35.9672 41.0692 37.4454 40.3425C39.4974 39.3723 41.493 38.29 43.4232 37.1007C44.5451 36.4034 45.6007 35.6943 46.5598 34.9852C46.9426 34.6872 47.2997 34.3583 47.6275 34.0019C47.724 33.8946 47.8265 33.7933 47.9291 33.692C47.9291 33.8052 47.8748 33.9244 47.8506 34.0376C47.7119 34.6336 47.5671 35.301 47.4344 35.9327C47.3198 36.4986 47.1312 37.0475 46.8735 37.5655C46.4338 38.4182 45.834 39.1806 45.1061 39.8121C44.2788 40.5089 43.3974 41.1405 42.4701 41.7011L41.9875 42.0051C39.7385 43.4393 37.3811 44.7004 34.9361 45.7772C33.4071 46.4383 31.8001 46.9068 30.1527 47.1717C28.0751 47.5352 25.9614 47.6552 23.8553 47.5292C22.1748 47.4325 20.508 47.1731 18.8789 46.7545C17.3115 46.3174 15.7951 45.7181 14.3549 44.9668C12.262 43.9725 10.2405 42.8376 8.30476 41.57L7.78602 41.2304C7.32155 40.9026 6.83295 40.5868 6.38055 40.2471ZM46.403 34.6574C45.8782 35.0686 45.3112 35.4381 44.7623 35.8016L44.1591 36.177C42.5201 37.277 40.8116 38.2722 39.0439 39.1566C38.0547 39.6512 36.7457 40.2948 35.3885 40.8609C34.0263 41.4005 32.6113 41.7999 31.1661 42.0527C28.7203 42.5131 26.2265 42.6752 23.7407 42.5354C21.0977 42.4083 18.4861 41.9128 15.9835 41.0635C15.0963 40.7367 14.23 40.3566 13.3897 39.9253L12.7865 39.6214C11.0159 38.7777 9.29778 37.8305 7.64125 36.7848C6.71836 36.1889 5.64466 35.5155 4.62525 34.7528C3.21648 33.7409 2.1622 32.3202 1.60924 30.6886C1.3431 29.8431 1.26288 28.9511 1.37398 28.0725C1.50669 26.8807 1.63337 25.6889 1.76004 24.497C1.83846 23.8117 1.91084 23.1205 1.98322 22.4351C2.0918 21.4221 2.2064 20.415 2.31497 19.4019L2.91818 14.1996C2.94834 14.3009 3.00868 16.8156 5.76531 19.1695C6.17548 19.5211 8.37114 21.3625 15.7543 24.9976C16.7682 25.4646 17.8356 25.8088 18.9332 26.0226C19.9405 26.2371 20.9961 26.4278 22.0698 26.6185C22.6979 26.7017 23.3303 26.7494 23.9639 26.7615C24.8325 26.7913 25.5684 26.8092 26.3103 26.7913C27.0523 26.7734 27.945 26.7019 28.6266 26.6364C30.0824 26.4875 31.5217 26.2103 32.9274 25.808C34.0754 25.4928 35.1887 25.0656 36.2511 24.5328C43.1698 21.0586 45.0699 19.3066 45.7274 18.7166C48.0558 16.6369 47.9291 14.6227 47.9894 14.3903C48.0256 14.7657 48.2669 16.3747 48.3091 16.7739L48.5624 19.098C48.665 20.0098 48.7675 20.9215 48.864 21.8333C48.9847 22.9099 49.1013 23.9885 49.2139 25.0691L49.3225 26.0464C49.4129 26.8628 49.5034 27.709 49.5758 28.5433C49.6612 29.7175 49.3948 30.8906 48.8098 31.9162C48.2056 32.9829 47.3865 33.9158 46.403 34.6574ZM47.2716 12.1913C47.4998 12.8521 47.5906 13.5515 47.5388 14.2478C47.487 14.9441 47.2935 15.6229 46.97 16.2436C46.3668 17.4831 45.4137 18.812 40.4252 21.7498C38.5877 22.8454 36.6796 23.8208 34.7129 24.6698C33.811 25.0295 32.8861 25.33 31.9442 25.5697C30.7325 25.8981 29.4927 26.1155 28.2406 26.2192C27.6072 26.2728 26.9618 26.3026 26.3345 26.3324L25.484 26.3801C24.0699 26.3615 22.6589 26.244 21.2616 26.0285C19.5882 25.7958 17.9521 25.3511 16.3937 24.7056C15.1873 24.1812 13.9809 23.5614 12.8107 22.9655L12.5031 22.8046C10.6872 21.8583 8.93249 20.8015 7.24916 19.6403C6.5018 19.1517 5.81542 18.5776 5.2043 17.93C4.25161 16.9395 3.65042 15.6701 3.49123 14.3128C3.4032 13.3461 3.58908 12.3743 4.02808 11.506C4.66072 10.2344 5.62729 9.15397 6.82691 8.37744L7.3155 8.05566C8.3711 7.35248 9.46291 6.6314 10.5668 5.9759C12.4036 4.87367 14.3141 3.89609 16.2851 3.04994C17.1829 2.69014 18.1037 2.38955 19.0417 2.15012C20.7456 1.70868 22.4932 1.4529 24.2534 1.38734C24.6817 1.38734 25.116 1.35754 25.5503 1.35754C26.8462 1.35669 28.1404 1.44832 29.4228 1.63167C31.2435 1.84981 33.0243 2.3192 34.7129 3.02612C36.034 3.62203 37.3429 4.29541 38.6156 4.95092L39.0861 5.19524C41.0259 6.20908 42.8815 7.37275 44.6356 8.6754C45.8645 9.54651 46.7863 10.7761 47.2716 12.1913Z" stroke="white" stroke-width="1.4" mask="url(#path-1-outside-1_252_83)"/>
</svg>
