<svg width="485" height="394" viewBox="0 0 485 394" fill="none" xmlns="http://www.w3.org/2000/svg">
<path d="M302.22 12.3203C301.435 10.544 300.031 9.13953 298.213 8.39597C269.71 -2.79866 238.357 -2.79866 209.854 8.39597C206.095 9.88308 204.277 14.1379 205.764 17.8969C206.467 19.7145 207.871 21.1603 209.647 21.9039C210.598 22.317 211.548 22.5235 212.539 22.5235C213.448 22.5235 214.357 22.3583 215.224 21.9865C240.216 12.1551 267.769 12.1551 292.802 21.9865C294.619 22.6887 296.602 22.6887 298.42 21.9039C300.196 21.119 301.6 19.7145 302.303 17.8969C303.005 16.1207 303.005 14.1379 302.22 12.3203Z" fill="white"/>
<path d="M364.265 108.445C361.043 108.941 358.813 111.998 359.35 115.22C365.463 153.513 350.344 192.095 319.776 216.013L312.754 200.687C311.803 198.581 309.655 197.217 307.342 197.217H295.487C292.223 197.217 289.579 199.861 289.579 203.125C289.579 206.388 292.223 209.032 295.487 209.032H303.542L309.862 222.787C275.617 243.937 232.367 243.937 198.164 222.787L204.484 209.032H212.539C215.802 209.032 218.446 206.388 218.446 203.125C218.446 199.861 215.802 197.217 212.539 197.217H200.683C198.37 197.217 196.263 198.581 195.313 200.687L188.25 216.013C157.722 192.095 142.562 153.513 148.676 115.22C149.213 111.998 146.982 108.941 143.76 108.445C140.538 107.908 137.481 110.139 136.986 113.361C126.658 178.009 170.693 238.774 235.341 249.06C299.989 259.346 360.713 215.352 371.04 150.704C373.023 138.311 373.023 125.712 371.04 113.361C370.503 110.139 367.487 107.95 364.265 108.445Z" fill="white"/>
<path d="M253.641 191.6C259.983 191.6 265.125 186.458 265.125 180.116C265.125 173.774 259.983 168.632 253.641 168.632C247.299 168.632 242.157 173.774 242.157 180.116C242.157 186.458 247.299 191.6 253.641 191.6Z" fill="white"/>
<path d="M341.339 82.9994C318.413 58.4208 287.39 44.8716 253.971 44.8716C220.553 44.8716 189.53 58.4208 166.604 82.9994C163.96 85.8084 164.125 90.2284 166.934 92.8722C169.743 95.5159 174.163 95.3507 176.807 92.5417C197.048 70.8134 224.477 58.8752 253.971 58.8339C283.507 58.8339 310.895 70.8134 331.136 92.5417C332.499 94.0288 334.358 94.7724 336.258 94.7724C337.952 94.7724 339.687 94.1527 341.009 92.9135C343.818 90.2284 343.983 85.8084 341.339 82.9994Z" fill="white"/>
<path d="M315.769 111.792C298.833 94.7311 276.898 85.3127 254.013 85.3127C231.128 85.3127 209.193 94.7311 192.256 111.792C189.53 114.518 189.571 118.938 192.298 121.664C195.024 124.391 199.444 124.349 202.17 121.623C216.422 107.206 234.846 99.2751 253.971 99.2751C273.139 99.2751 291.562 107.206 305.855 121.623C307.218 122.986 308.995 123.688 310.812 123.688C312.588 123.688 314.365 123.028 315.728 121.664C318.454 118.938 318.454 114.518 315.769 111.792Z" fill="white"/>
<path d="M287.845 140.666C278.757 131.661 265.786 126.084 253.93 126.084H253.434C241.579 126.084 228.567 131.661 219.52 140.666C216.794 143.393 216.752 147.771 219.479 150.539C220.842 151.902 222.618 152.604 224.436 152.604C226.212 152.604 227.988 151.943 229.352 150.58C235.796 144.177 245.255 140.047 253.476 140.047H253.971C262.151 140.047 271.652 144.177 278.096 150.58C280.822 153.307 285.242 153.265 287.968 150.539C290.612 147.813 290.571 143.393 287.845 140.666Z" fill="white"/>
<g clip-path="url(#clip0_7_598)">
<path d="M140.61 323.358H143.32L148.61 305.208H148.8L154.09 323.358H156.8L163.06 300.368H160.06L155.49 319.058H155.3L150.15 300.368H147.25L142.1 319.058H141.91L137.34 300.368H134.34L140.6 323.358H140.61ZM167.43 323.358H181.68V320.778H170.3V312.878H181.09V310.328H170.3V302.948H181.68V300.368H167.43V323.358ZM186.87 323.358H200.83V320.778H189.74V300.368H186.87V323.358ZM213.72 323.898C215.36 323.898 216.82 323.608 218.12 323.038C219.43 322.468 220.5 321.658 221.35 320.628C222.2 319.588 222.75 318.368 223.01 316.958V316.928H220.11L220.08 316.958C219.85 317.838 219.43 318.608 218.84 319.258C218.25 319.898 217.51 320.388 216.64 320.738C215.77 321.078 214.8 321.248 213.72 321.248C212.24 321.248 210.96 320.868 209.88 320.098C208.81 319.328 207.98 318.248 207.39 316.848C206.81 315.448 206.52 313.788 206.52 311.878V311.848C206.52 309.928 206.81 308.258 207.39 306.858C207.98 305.458 208.8 304.378 209.88 303.608C210.96 302.848 212.24 302.458 213.7 302.458C214.76 302.458 215.72 302.658 216.58 303.048C217.45 303.438 218.19 303.998 218.8 304.718C219.4 305.428 219.84 306.278 220.09 307.268L220.11 307.298H222.99L223.01 307.268C222.79 305.798 222.25 304.508 221.38 303.398C220.52 302.268 219.43 301.398 218.1 300.768C216.78 300.128 215.32 299.808 213.7 299.808C211.62 299.808 209.82 300.298 208.3 301.278C206.79 302.258 205.62 303.638 204.8 305.438C203.98 307.228 203.57 309.368 203.57 311.838V311.868C203.57 314.328 203.98 316.458 204.8 318.258C205.63 320.048 206.8 321.438 208.32 322.418C209.84 323.398 211.64 323.888 213.72 323.888V323.898ZM237.48 323.898C239.67 323.898 241.55 323.408 243.12 322.418C244.7 321.428 245.91 320.038 246.75 318.248C247.6 316.438 248.02 314.318 248.02 311.878V311.848C248.02 309.398 247.6 307.268 246.75 305.478C245.9 303.668 244.69 302.278 243.1 301.308C241.53 300.328 239.65 299.838 237.48 299.838C235.31 299.838 233.44 300.328 231.85 301.308C230.28 302.288 229.06 303.668 228.2 305.468C227.35 307.258 226.93 309.388 226.93 311.858V311.888C226.93 314.328 227.35 316.458 228.19 318.258C229.04 320.068 230.25 321.458 231.82 322.448C233.39 323.428 235.28 323.918 237.48 323.918V323.898ZM237.48 321.248C235.89 321.248 234.52 320.858 233.38 320.088C232.24 319.308 231.37 318.228 230.77 316.818C230.17 315.408 229.86 313.748 229.86 311.858V311.828C229.86 309.918 230.17 308.258 230.78 306.858C231.41 305.458 232.29 304.378 233.43 303.608C234.57 302.848 235.92 302.458 237.48 302.458C239.04 302.458 240.41 302.838 241.54 303.608C242.68 304.378 243.55 305.458 244.17 306.858C244.79 308.258 245.09 309.918 245.09 311.828V311.858C245.09 313.748 244.78 315.398 244.17 316.818C243.55 318.218 242.68 319.308 241.54 320.088C240.4 320.858 239.05 321.248 237.48 321.248ZM253 323.348H255.68V305.808H257.08L253.88 301.008L263.12 323.368H265.54L274.8 301.008L271.58 305.808H272.98V323.358H275.66V300.368H272.33L264.46 319.558H264.21L256.34 300.368H253.01V323.358L253 323.348ZM281.52 323.348H295.77V320.768H284.39V312.868H295.18V310.318H284.39V302.948H295.77V300.368H281.52V323.358V323.348ZM316.11 323.348H318.98V302.948H326.39V300.368H308.7V302.948H316.11V323.358V323.348ZM339.52 323.888C341.71 323.888 343.59 323.398 345.16 322.408C346.74 321.418 347.95 320.028 348.79 318.238C349.64 316.428 350.06 314.308 350.06 311.868V311.838C350.06 309.388 349.64 307.258 348.79 305.468C347.94 303.658 346.72 302.268 345.14 301.298C343.57 300.318 341.69 299.828 339.52 299.828C337.35 299.828 335.48 300.318 333.89 301.298C332.32 302.278 331.1 303.658 330.24 305.458C329.39 307.248 328.97 309.378 328.97 311.848V311.878C328.97 314.318 329.39 316.448 330.23 318.248C331.08 320.058 332.29 321.448 333.86 322.438C335.43 323.418 337.32 323.908 339.52 323.908V323.888ZM339.52 321.238C337.93 321.238 336.56 320.848 335.43 320.078C334.29 319.298 333.42 318.218 332.82 316.808C332.22 315.398 331.91 313.738 331.91 311.848V311.818C331.91 309.908 332.22 308.248 332.83 306.848C333.46 305.448 334.34 304.368 335.47 303.598C336.61 302.838 337.96 302.448 339.52 302.448C341.08 302.448 342.45 302.828 343.58 303.598C344.72 304.368 345.59 305.448 346.21 306.848C346.83 308.248 347.13 309.908 347.13 311.818V311.848C347.13 313.738 346.82 315.388 346.21 316.808C345.59 318.208 344.72 319.298 343.58 320.078C342.44 320.848 341.09 321.238 339.52 321.238ZM0 392.978H9.09L19.44 359.618H22.05V351.588H14.42L0 392.978ZM7.74 382.938H31.29L29.17 376.458H9.87L7.75 382.938H7.74ZM29.94 392.978H39.06L24.6 351.588H19.61V359.618L29.94 392.978ZM47.78 379.928H60.08C62.99 379.928 65.53 379.348 67.71 378.178C69.89 377.008 71.58 375.368 72.79 373.248C74.01 371.128 74.63 368.638 74.63 365.788V365.728C74.63 362.898 74.02 360.418 72.79 358.298C71.58 356.178 69.89 354.528 67.71 353.368C65.53 352.188 62.99 351.588 60.08 351.588H47.78V358.448H57.96C60.44 358.448 62.38 359.078 63.75 360.338C65.15 361.598 65.84 363.408 65.84 365.758V365.818C65.84 368.168 65.14 369.988 63.75 371.268C62.37 372.528 60.44 373.158 57.96 373.158H47.78V379.928ZM43.45 392.978H52.11V351.588H43.45V392.978ZM94.89 392.978H99.71V361.028H102.06L96.47 352.738L113.11 392.978H117.47L134.11 352.738L128.52 361.028H130.87V392.978H135.69V351.588H129.72L115.38 386.438H115.21L100.87 351.588H94.9V392.978H94.89ZM140.52 392.978H145.94L158.42 357.818H159.74V351.598H155.93L140.53 392.988L140.52 392.978ZM147.58 381.128H169.38L167.66 376.738H149.3L147.58 381.128ZM170.98 392.978H176.4L161.03 351.588H158.53V357.808L170.98 392.968V392.978ZM181.28 392.978H186.39V360.338H188.71L182.29 354.228L209.31 392.978H214.33V351.588H209.23V384.228H206.91L213.33 390.338L186.31 351.588H181.29V392.978H181.28ZM219.17 392.978H224.59L237.07 357.818H238.39V351.598H234.58L219.18 392.988L219.17 392.978ZM226.23 381.128H248.03L246.31 376.738H227.96L226.24 381.128H226.23ZM249.63 392.978H255.05L239.68 351.588H237.18V357.808L249.63 392.968V392.978ZM276.08 393.668C279.75 393.668 282.89 392.958 285.49 391.548C288.11 390.128 290.12 388.108 291.51 385.468C292.93 382.808 293.63 379.628 293.63 375.918V371.928H276.79V376.458H288.46V377.208C288.46 379.518 287.93 381.558 286.88 383.318C285.85 385.078 284.39 386.458 282.52 387.448C280.66 388.418 278.51 388.908 276.07 388.908C273.26 388.908 270.83 388.228 268.78 386.868C266.74 385.508 265.16 383.568 264.05 381.048C262.94 378.518 262.39 375.528 262.39 372.068V372.038C262.39 368.638 262.94 365.708 264.03 363.258C265.14 360.808 266.71 358.938 268.76 357.638C270.8 356.318 273.24 355.658 276.07 355.658C278.9 355.658 281.42 356.378 283.41 357.808C285.4 359.238 286.87 361.278 287.83 363.918L287.95 364.208H293.37L293.23 363.688C292.6 361.218 291.54 359.028 290.05 357.118C288.56 355.188 286.65 353.668 284.31 352.558C281.98 351.448 279.23 350.898 276.08 350.898C272.24 350.898 268.89 351.768 266.04 353.508C263.21 355.228 261.01 357.668 259.44 360.818C257.89 363.968 257.12 367.708 257.12 372.028V372.058C257.12 376.458 257.89 380.268 259.44 383.498C261.01 386.728 263.21 389.238 266.04 391.018C268.89 392.778 272.24 393.658 276.08 393.658V393.668ZM300.37 392.978H326.01V388.328H305.53V374.098H324.95V369.508H305.53V356.228H326.01V351.578H300.37V392.968V392.978ZM332.95 392.978H337.77V361.028H340.12L334.53 352.738L351.16 392.978H355.52L372.16 352.738L366.57 361.028H368.92V392.978H373.74V351.588H367.77L353.43 386.438H353.26L338.92 351.588H332.95V392.978ZM381.88 392.978H407.52V388.328H387.04V374.098H406.46V369.508H387.04V356.228H407.52V351.578H381.88V392.968V392.978ZM414.46 392.978H419.56V360.338H421.88L415.46 354.228L442.48 392.978H447.5V351.588H442.39V384.228H440.07L446.5 390.338L419.48 351.588H414.46V392.978ZM466.11 392.978H471.27V356.238H484.35V351.588H453.06V356.238H466.11V392.978Z" fill="white"/>
</g>
<defs>
<clipPath id="clip0_7_598">
<rect width="484.35" height="93.84" fill="white" transform="translate(0 299.828)"/>
</clipPath>
</defs>
</svg>
